<?xml version="1.0" encoding="UTF-8"?>
<svg version="1.1" xmlns="http://www.w3.org/2000/svg" width="1024" height="1024">
<path d="M0 0 C337.92 0 675.84 0 1024 0 C1024 337.92 1024 675.84 1024 1024 C686.08 1024 348.16 1024 0 1024 C0 686.08 0 348.16 0 0 Z " fill="#05131E" transform="translate(0,0)"/>
<path d="M0 0 C0.99 0.66 1.98 1.32 3 2 C3.99 1.67 4.98 1.34 6 1 C6.495 2.485 6.495 2.485 7 4 C9.01508358 4.73323796 9.01508358 4.73323796 11 5 C11 5.66 11 6.32 11 7 C11.47937021 9.31695601 12.13402863 11.31536148 13.0625 13.5 C14 16 14 16 14 20 C13.01 20.66 12.02 21.32 11 22 C11.52268466 24.76276177 12.10869587 27.3260876 13 30 C15.31 29.67 17.62 29.34 20 29 C20.495 29.99 20.495 29.99 21 31 C20.38125 31.04125 19.7625 31.0825 19.125 31.125 C18.073125 31.558125 18.073125 31.558125 17 32 C15.75 34.91666667 15.75 34.91666667 15 38 C14 40 14 40 13 41 C13.09050104 42.6290187 13.24727869 44.25459628 13.4375 45.875 C13.75432875 48.62619649 14 51.22703147 14 54 C13.01 54 12.02 54 11 54 C11 52.35 11 50.7 11 49 C9.02 49.495 9.02 49.495 7 50 C7.495 52.475 7.495 52.475 8 55 C2.25 60 2.25 60 0 60 C0 59.34 0 58.68 0 58 C-0.928125 58.2475 -0.928125 58.2475 -1.875 58.5 C-4 59 -4 59 -6 59 C-6.99 59.33 -7.98 59.66 -9 60 C-9 59.01 -9 58.02 -9 57 C-9.99 57.66 -10.98 58.32 -12 59 C-11.814375 59.845625 -11.62875 60.69125 -11.4375 61.5625 C-10.96470368 65.2773282 -11.33935369 68.32974273 -12 72 C-11.34 72.33 -10.68 72.66 -10 73 C-10 73.66 -10 74.32 -10 75 C-13.75 77 -13.75 77 -16 77 C-18.99332739 76.0022242 -19.94766315 75.2477975 -22 73 C-23.32 73.99 -24.64 74.98 -26 76 C-26.33 75.01 -26.66 74.02 -27 73 C-28.98 73.495 -28.98 73.495 -31 74 C-31 73.01 -31 72.02 -31 71 C-30.34 71 -29.68 71 -29 71 C-29 70.34 -29 69.68 -29 69 C-30.32 69 -31.64 69 -33 69 C-33.495 69.99 -33.495 69.99 -34 71 C-34.66 71 -35.32 71 -36 71 C-36 70.34 -36 69.68 -36 69 C-36.66 69 -37.32 69 -38 69 C-38.99928333 66.301935 -39.03624754 65.11989571 -38.1875 62.3125 C-37 60 -37 60 -35 59 C-35 57.68 -35 56.36 -35 55 C-36.65 54.67 -38.3 54.34 -40 54 C-40.33 55.32 -40.66 56.64 -41 58 C-42.00912976 54.86048521 -41.83408393 53.14075741 -41 50 C-40.14721847 44.78855734 -39.79821872 40.20771889 -41 35 C-38.35370218 32.82625536 -36.35253045 31.67050609 -33 31 C-32.34 30.67 -31.68 30.34 -31 30 C-31 29.01 -31 28.02 -31 27 C-26.77777778 24 -26.77777778 24 -24 24 C-24 21.69 -24 19.38 -24 17 C-20.66666667 17 -17.33333333 17 -14 17 C-13.67 15.35 -13.34 13.7 -13 12 C-11.68 12.66 -10.36 13.32 -9 14 C-9 12.68 -9 11.36 -9 10 C-8.01 9.34 -7.02 8.68 -6 8 C-5.27617533 5.94074861 -5.27617533 5.94074861 -5 4 C-3.35 3.67 -1.7 3.34 0 3 C0 2.01 0 1.02 0 0 Z M-1 60 C-0.34 60.66 0.32 61.32 1 62 C0.01 62.66 -0.98 63.32 -2 64 C-1.67 62.68 -1.34 61.36 -1 60 Z " fill="#0D2B41" transform="translate(583,551)"/>
<path d="M0 0 C0.66 0 1.32 0 2 0 C1.67 1.65 1.34 3.3 1 5 C1.763125 5.20625 2.52625 5.4125 3.3125 5.625 C6.87313444 7.44671994 7.64197328 9.3031495 9 13 C8.67 13.99 8.34 14.98 8 16 C9.32 16.33 10.64 16.66 12 17 C11.54965877 18.62723299 11.08944646 20.25173664 10.625 21.875 C10.24214844 23.23238281 10.24214844 23.23238281 9.8515625 24.6171875 C9 27 9 27 7 29 C6.67 28.34 6.34 27.68 6 27 C5.01 26.67 4.02 26.34 3 26 C2.67 27.98 2.34 29.96 2 32 C2.99 31.67 3.98 31.34 5 31 C5.66 32.32 6.32 33.64 7 35 C5 36 5 36 2 37 C1.67 37.99 1.34 38.98 1 40 C0.34 40 -0.32 40 -1 40 C-0.73323796 41.98491642 -0.73323796 41.98491642 0 44 C0.99 44.33 1.98 44.66 3 45 C1.87204037 49.10899581 0.66489182 53.07561214 -1 57 C-2.98 56.34 -4.96 55.68 -7 55 C-6.67 54.01 -6.34 53.02 -6 52 C-6.78375 51.938125 -7.5675 51.87625 -8.375 51.8125 C-11 51 -11 51 -12.4375 48.75 C-13.13326437 45.34848531 -12.50608314 44.08747043 -11 41 C-10.731875 39.96875 -10.46375 38.9375 -10.1875 37.875 C-8.73887129 34.36779365 -7.36766461 33.59964069 -4 32 C-3.34 31.67 -2.68 31.34 -2 31 C-2.99 29.68 -3.98 28.36 -5 27 C-4.67 26.34 -4.34 25.68 -4 25 C-3.34 25.33 -2.68 25.66 -2 26 C-1.67 24.35 -1.34 22.7 -1 21 C-1.78375 21.350625 -2.5675 21.70125 -3.375 22.0625 C-4.24125 22.371875 -5.1075 22.68125 -6 23 C-6.66 22.67 -7.32 22.34 -8 22 C-8 19.36 -8 16.72 -8 14 C-7.34 14 -6.68 14 -6 14 C-4.98617037 10.3791799 -4.50102309 6.72188582 -4 3 C-3.01 2.67 -2.02 2.34 -1 2 C-0.67 1.34 -0.34 0.68 0 0 Z M5 12 C4.67 12.66 4.34 13.32 4 14 C4.66 14 5.32 14 6 14 C5.67 13.34 5.34 12.68 5 12 Z " fill="#0D2A3F" transform="translate(600,603)"/>
<path d="M0 0 C-0.75 6.625 -0.75 6.625 -3 10 C-2.01 10 -1.02 10 0 10 C0 10.66 0 11.32 0 12 C0.66 12 1.32 12 2 12 C2.66 13.32 3.32 14.64 4 16 C1 18 1 18 -2 18 C-2.33 16.35 -2.66 14.7 -3 13 C-3.99 13 -4.98 13 -6 13 C-6 12.01 -6 11.02 -6 10 C-7.94999129 10.19471111 -7.94999129 10.19471111 -10 11 C-11.28436734 12.9837767 -11.28436734 12.9837767 -12 15 C-11.01 14.01 -10.02 13.02 -9 12 C-8.34 13.98 -7.68 15.96 -7 18 C-7.8971875 18.2475 -7.8971875 18.2475 -8.8125 18.5 C-11.80860187 20.55446985 -12.15428474 22.80473329 -13.09375 26.22265625 C-13.3928125 26.80917969 -13.691875 27.39570312 -14 28 C-16.02734375 28.58984375 -16.02734375 28.58984375 -18 29 C-18.70211894 30.65204456 -19.36971413 32.31923769 -20 34 C-21.485 34.495 -21.485 34.495 -23 35 C-24.32 33.68 -25.64 32.36 -27 31 C-26.34 30.67 -25.68 30.34 -25 30 C-25 29.34 -25 28.68 -25 28 C-25.928125 28.2475 -25.928125 28.2475 -26.875 28.5 C-29 29 -29 29 -31 29 C-31.99 31.475 -31.99 31.475 -33 34 C-33.66 34 -34.32 34 -35 34 C-35 32.68 -35 31.36 -35 30 C-35.99 30.33 -36.98 30.66 -38 31 C-37.75 29.125 -37.75 29.125 -37 27 C-36.360625 26.71125 -35.72125 26.4225 -35.0625 26.125 C-32.01890612 24.46485789 -31.96966627 22.23222088 -31 19 C-29.375 16.625 -29.375 16.625 -28 15 C-26.68 15.33 -25.36 15.66 -24 16 C-23.8453125 14.88625 -23.8453125 14.88625 -23.6875 13.75 C-22.90605325 10.624213 -22.44169019 9.1266334 -20 7 C-16.5357288 6.48887802 -13.19077762 6.40461119 -10 8 C-9.67 7.34 -9.34 6.68 -9 6 C-8.34 6 -7.68 6 -7 6 C-7 5.34 -7 4.68 -7 4 C-2.52941176 0 -2.52941176 0 0 0 Z " fill="#0C273A" transform="translate(662,516)"/>
<path d="M0 0 C0.66 0.33 1.32 0.66 2 1 C2.33 0.67 2.66 0.34 3 0 C3.763125 0.680625 4.52625 1.36125 5.3125 2.0625 C6.6428125 3.0215625 6.6428125 3.0215625 8 4 C8.99 3.67 9.98 3.34 11 3 C11 3.66 11 4.32 11 5 C11.66 5.33 12.32 5.66 13 6 C12.34 7.98 11.68 9.96 11 12 C11.598125 11.690625 12.19625 11.38125 12.8125 11.0625 C16.1603064 9.43642261 18.2094894 9 22 9 C22 9.66 22 10.32 22 11 C21.34 11 20.68 11 20 11 C20 13.31 20 15.62 20 18 C21.32 18.33 22.64 18.66 24 19 C23.67 19.66 23.34 20.32 23 21 C22.01 21 21.02 21 20 21 C20.66 23.64 21.32 26.28 22 29 C20.35 29 18.7 29 17 29 C16.34 27.68 15.68 26.36 15 25 C14.34 25 13.68 25 13 25 C13.33 23.68 13.66 22.36 14 21 C12.68 21 11.36 21 10 21 C9.67 20.34 9.34 19.68 9 19 C7.02 19 5.04 19 3 19 C2.67 19.66 2.34 20.32 2 21 C1.34 21 0.68 21 0 21 C-0.33 21.99 -0.66 22.98 -1 24 C-2.875 23.6875 -2.875 23.6875 -5 23 C-5.66 22.01 -6.32 21.02 -7 20 C-5.68 19.34 -4.36 18.68 -3 18 C-3 17.01 -3 16.02 -3 15 C-3.66 15 -4.32 15 -5 15 C-5.33 14.01 -5.66 13.02 -6 12 C-9.60992379 12.65585189 -9.60992379 12.65585189 -13 14 C-14 11 -14 11 -13 8 C-10.9375 6.8125 -10.9375 6.8125 -9 6 C-9.33 5.01 -9.66 4.02 -10 3 C-8.02 2.34 -6.04 1.68 -4 1 C-4 1.66 -4 2.32 -4 3 C-2.68 2.01 -1.36 1.02 0 0 Z " fill="#0D293D" transform="translate(477,557)"/>
<path d="M0 0 C0.66 0 1.32 0 2 0 C3.125 3.75 3.125 3.75 2 6 C2.66 6.66 3.32 7.32 4 8 C3.67 8.99 3.34 9.98 3 11 C-0.19902639 11.08886184 -2.92677456 10.91058531 -6 10 C-6 10.99 -6 11.98 -6 13 C-5.34 13 -4.68 13 -4 13 C-4 13.66 -4 14.32 -4 15 C-5.66279327 16.0064275 -7.32983484 17.00585407 -9 18 C-9.66 18.99 -10.32 19.98 -11 21 C-10.34 22.32 -9.68 23.64 -9 25 C-9.66 25 -10.32 25 -11 25 C-11 25.66 -11 26.32 -11 27 C-11.99 27 -12.98 27 -14 27 C-14.33 28.65 -14.66 30.3 -15 32 C-15.99 31.34 -16.98 30.68 -18 30 C-17.34 30 -16.68 30 -16 30 C-16.33 29.01 -16.66 28.02 -17 27 C-17 26.01 -17 25.02 -17 24 C-17.66 24.66 -18.32 25.32 -19 26 C-20.32 25.34 -21.64 24.68 -23 24 C-19.69039084 17.74460396 -17.58824798 13.99465817 -11 11 C-9.56031273 7.93638223 -9.56031273 7.93638223 -9 5 C-8.01 5 -7.02 5 -6 5 C-6 4.34 -6 3.68 -6 3 C-4.35 3 -2.7 3 -1 3 C-0.67 2.01 -0.34 1.02 0 0 Z " fill="#0C2739" transform="translate(367,448)"/>
<path d="M0 0 C0.33 0.99 0.66 1.98 1 3 C-0.32 4.32 -1.64 5.64 -3 7 C-2.67 7.66 -2.34 8.32 -2 9 C-0.68 9 0.64 9 2 9 C1.67 9.66 1.34 10.32 1 11 C0.34 11 -0.32 11 -1 11 C-1.33 11.66 -1.66 12.32 -2 13 C-1.34 13.33 -0.68 13.66 0 14 C-0.66 14 -1.32 14 -2 14 C-2 15.32 -2 16.64 -2 18 C-2.969375 18.12375 -3.93875 18.2475 -4.9375 18.375 C-5.948125 18.58125 -6.95875 18.7875 -8 19 C-8.33 19.66 -8.66 20.32 -9 21 C-10.125 17.25 -10.125 17.25 -9 15 C-9.99 15 -10.98 15 -12 15 C-12.66 14.34 -13.32 13.68 -14 13 C-14.99 12.67 -15.98 12.34 -17 12 C-17.33 12.66 -17.66 13.32 -18 14 C-17.67 12.35 -17.34 10.7 -17 9 C-16.01 8.67 -15.02 8.34 -14 8 C-13.34 8.33 -12.68 8.66 -12 9 C-12.33 6.69 -12.66 4.38 -13 2 C-12.01 2 -11.02 2 -10 2 C-9.34 1.01 -8.68 0.02 -8 -1 C-4.73427942 -2.41514558 -2.90251755 -2.00173624 0 0 Z " fill="#0C293D" transform="translate(496,341)"/>
<path d="M0 0 C2.9719385 1.12451727 5.33440687 2.22293791 8 4 C7.39886096 9.41025137 6.78332024 11.21667976 3 15 C3.99 15.66 4.98 16.32 6 17 C5.67 17.99 5.34 18.98 5 20 C-0.75 18.375 -0.75 18.375 -3 15 C-3.39013716 13.0103005 -3.73202649 11.00980131 -4 9 C-4.433125 9.928125 -4.433125 9.928125 -4.875 10.875 C-6 13 -6 13 -8 15 C-8 14.34 -8 13.68 -8 13 C-9.65 13 -11.3 13 -13 13 C-13 13.66 -13 14.32 -13 15 C-13.66 14.67 -14.32 14.34 -15 14 C-13.625 12 -13.625 12 -12 10 C-11.34 10 -10.68 10 -10 10 C-9.67 7.69 -9.34 5.38 -9 3 C-8.01 3 -7.02 3 -6 3 C-5.67 3.66 -5.34 4.32 -5 5 C-4.54625 4.54625 -4.0925 4.0925 -3.625 3.625 C-2.41666667 2.41666667 -1.20833333 1.20833333 0 0 Z " fill="#0D2A3E" transform="translate(530,329)"/>
<path d="M0 0 C0.99 0 1.98 0 3 0 C3.33 1.98 3.66 3.96 4 6 C3.34 6 2.68 6 2 6 C2.33 6.99 2.66 7.98 3 9 C2.34 9.66 1.68 10.32 1 11 C0.814375 11.825 0.62875 12.65 0.4375 13.5 C-1 16 -1 16 -3.12890625 16.76953125 C-5.41463594 17.26674006 -7.68311199 17.68059363 -10 18 C-10 17.01 -10 16.02 -10 15 C-10.99 15.495 -10.99 15.495 -12 16 C-12.66 15.01 -13.32 14.02 -14 13 C-14.99 13.99 -15.98 14.98 -17 16 C-18 13 -18 13 -18 10 C-16.6078125 9.566875 -16.6078125 9.566875 -15.1875 9.125 C-11.90208333 8.1125 -11.90208333 8.1125 -9 6 C-7.33333333 6 -5.66666667 6 -4 6 C-3.566875 5.071875 -3.566875 5.071875 -3.125 4.125 C-2 2 -2 2 0 0 Z " fill="#0C283A" transform="translate(512,309)"/>
<path d="M0 0 C1.32 0.66 2.64 1.32 4 2 C3.34 3.98 2.68 5.96 2 8 C2.99 7.34 3.98 6.68 5 6 C5.33 6.99 5.66 7.98 6 9 C5.67 9.66 5.34 10.32 5 11 C3.68 11 2.36 11 1 11 C0.34 13.64 -0.32 16.28 -1 19 C-3.5 17.1875 -3.5 17.1875 -6 15 C-6 14.01 -6 13.02 -6 12 C-6.99 12.33 -7.98 12.66 -9 13 C-9.66 11.35 -10.32 9.7 -11 8 C-11.66 8 -12.32 8 -13 8 C-12.67 6.68 -12.34 5.36 -12 4 C-7.545 4.99 -7.545 4.99 -3 6 C-2.67 4.68 -2.34 3.36 -2 2 C-1.34 1.34 -0.68 0.68 0 0 Z " fill="#0B2537" transform="translate(359,412)"/>
<path d="M0 0 C0.66 0 1.32 0 2 0 C2.75 2.75 2.75 2.75 3 6 C1.1875 8.375 1.1875 8.375 -1 10 C-1.66 10 -2.32 10 -3 10 C-3 11.98 -3 13.96 -3 16 C-3.99 16.33 -4.98 16.66 -6 17 C-5.81870185 20.43793339 -5.81870185 20.43793339 -5 24 C-3.06402968 25.51294288 -3.06402968 25.51294288 -1 26 C-2.98 27.32 -4.96 28.64 -7 30 C-7 29.34 -7 28.68 -7 28 C-7.66 27.67 -8.32 27.34 -9 27 C-8.34 27 -7.68 27 -7 27 C-7.15597656 26.34773437 -7.31195312 25.69546875 -7.47265625 25.0234375 C-8.58490411 20.02937096 -9.3320153 16.06165813 -8 11 C-7.34 11 -6.68 11 -6 11 C-6.66 9.35 -7.32 7.7 -8 6 C-5.625 4.4375 -5.625 4.4375 -3 3 C-2.34 3.33 -1.68 3.66 -1 4 C-0.67 2.68 -0.34 1.36 0 0 Z " fill="#0D293D" transform="translate(535,564)"/>
<path d="M0 0 C4.45848315 0 7.25593545 0.50395696 11 3 C10.34 3.433125 9.68 3.86625 9 4.3125 C8.34 4.869375 7.68 5.42625 7 6 C7 6.99 7 7.98 7 9 C5.17739702 11.16976546 3.39188999 12.40540668 1 14 C1 13.34 1 12.68 1 12 C0.071875 11.8453125 0.071875 11.8453125 -0.875 11.6875 C-3 11 -3 11 -5 8 C-5 7.01 -5 6.02 -5 5 C-4.34 5 -3.68 5 -3 5 C-2.67 4.01 -2.34 3.02 -2 2 C-1.34 2 -0.68 2 0 2 C0 1.34 0 0.68 0 0 Z " fill="#0D2B3F" transform="translate(611,574)"/>
<path d="M0 0 C1.98 0 3.96 0 6 0 C6 0.66 6 1.32 6 2 C6.66 2.33 7.32 2.66 8 3 C8 6.34238213 7.51848927 8.03533048 6 11 C3.375 13.3125 3.375 13.3125 1 15 C0.71125 14.360625 0.4225 13.72125 0.125 13.0625 C-0.82823451 10.84793921 -0.82823451 10.84793921 -3 10 C-2.34 9.01 -1.68 8.02 -1 7 C-1.66 6.67 -2.32 6.34 -3 6 C-3.0825 6.78375 -3.165 7.5675 -3.25 8.375 C-4 11 -4 11 -6.0625 12.3125 C-7.0215625 12.6528125 -7.0215625 12.6528125 -8 13 C-7.52797514 8.75177626 -5.03344482 6.80010291 -2 4 C-1.01 4.33 -0.02 4.66 1 5 C1 4.34 1 3.68 1 3 C0.34 2.67 -0.32 2.34 -1 2 C-0.67 1.34 -0.34 0.68 0 0 Z " fill="#0C283B" transform="translate(302,474)"/>
<path d="M0 0 C0.99 0.33 1.98 0.66 3 1 C2.01 1.495 2.01 1.495 1 2 C1 2.99 1 3.98 1 5 C1.66 5.33 2.32 5.66 3 6 C3.33 6.33 3.66 6.66 4 7 C4.928125 6.484375 5.85625 5.96875 6.8125 5.4375 C10 4 10 4 13 5 C12.67 6.65 12.34 8.3 12 10 C11.30132813 10.02578125 10.60265625 10.0515625 9.8828125 10.078125 C8.97273437 10.13484375 8.06265625 10.1915625 7.125 10.25 C6.22007812 10.29640625 5.31515625 10.3428125 4.3828125 10.390625 C1.82889456 10.75611148 1.82889456 10.75611148 0.6796875 13.046875 C0.45539062 13.69140625 0.23109375 14.3359375 0 15 C-0.66 14.01 -1.32 13.02 -2 12 C-1.67 11.01 -1.34 10.02 -1 9 C-1.99 9 -2.98 9 -4 9 C-4.33 7.02 -4.66 5.04 -5 3 C-2.6875 1.4375 -2.6875 1.4375 0 0 Z " fill="#0C283C" transform="translate(558,518)"/>
<path d="M0 0 C0 1.65 0 3.3 0 5 C-1.32 5.33 -2.64 5.66 -4 6 C-3.67 6.99 -3.34 7.98 -3 9 C-4.96466413 10.06775224 -6.96855359 11.06553465 -9 12 C-9.66 11.67 -10.32 11.34 -11 11 C-11.5625 8.6875 -11.5625 8.6875 -12 6 C-12.32483418 4.66457061 -12.6550855 3.33038449 -13 2 C-4.6875 -1.5625 -4.6875 -1.5625 0 0 Z " fill="#0B2334" transform="translate(454,511)"/>
<path d="M0 0 C8.57142857 1 8.57142857 1 12 2 C11.67 3.32 11.34 4.64 11 6 C9.824375 6.12375 9.824375 6.12375 8.625 6.25 C5.89809093 6.71108297 5.89809093 6.71108297 4.875 8.8125 C4.58625 9.534375 4.2975 10.25625 4 11 C2.5 13.25 2.5 13.25 1 15 C0.34 15 -0.32 15 -1 15 C-0.835 14.401875 -0.67 13.80375 -0.5 13.1875 C0.1114124 10.88655664 0.1114124 10.88655664 0 8 C0 5.33333333 0 2.66666667 0 0 Z " fill="#0B2334" transform="translate(469,586)"/>
<path d="M0 0 C-0.33 2.64 -0.66 5.28 -1 8 C-1.99 8.33 -2.98 8.66 -4 9 C-5.22969878 12.51190809 -5.22969878 12.51190809 -6 16 C-6.61875 16.144375 -7.2375 16.28875 -7.875 16.4375 C-10.03258322 16.93152225 -10.03258322 16.93152225 -12 18 C-13 15 -13 15 -11.6875 12.0625 C-11.130625 11.051875 -10.57375 10.04125 -10 9 C-9.4121875 7.824375 -9.4121875 7.824375 -8.8125 6.625 C-8.544375 6.08875 -8.27625 5.5525 -8 5 C-7.34 5.33 -6.68 5.66 -6 6 C-6.33 5.01 -6.66 4.02 -7 3 C-4.49955934 -0.00052879 -4.2621484 0 0 0 Z " fill="#0C2536" transform="translate(657,578)"/>
<path d="M0 0 C2.66363467 1.33181733 4.75598043 3.05124617 7 5 C7 5.66 7 6.32 7 7 C6.175 7.433125 5.35 7.86625 4.5 8.3125 C3.675 8.869375 2.85 9.42625 2 10 C1.58219121 12.62694422 1.58219121 12.62694422 2 15 C0.68 15.33 -0.64 15.66 -2 16 C-2.103125 15.360625 -2.20625 14.72125 -2.3125 14.0625 C-2.539375 13.381875 -2.76625 12.70125 -3 12 C-3.99 11.67 -4.98 11.34 -6 11 C-5.67 10.01 -5.34 9.02 -5 8 C-4.34 8 -3.68 8 -3 8 C-3 7.34 -3 6.68 -3 6 C-2.34 6 -1.68 6 -1 6 C-1.33 5.01 -1.66 4.02 -2 3 C-1.34 2.01 -0.68 1.02 0 0 Z " fill="#0C2A3F" transform="translate(532,618)"/>
<path d="M0 0 C1.32 0.66 2.64 1.32 4 2 C2.68 3.65 1.36 5.3 0 7 C0.99 8.485 0.99 8.485 2 10 C3.09658936 13.28976808 2.79953138 14.71303767 2 18 C0.02 18.33 -1.96 18.66 -4 19 C-4 18.01 -4 17.02 -4 16 C-4.66 15.67 -5.32 15.34 -6 15 C-4.68 14.67 -3.36 14.34 -2 14 C-2.66 11.36 -3.32 8.72 -4 6 C-3.34 5.67 -2.68 5.34 -2 5 C-1.6278958 3.67696283 -1.29369827 2.34262065 -1 1 C-0.67 0.67 -0.34 0.34 0 0 Z " fill="#0C2435" transform="translate(593,326)"/>
<path d="M0 0 C0.66 0 1.32 0 2 0 C1.67 1.98 1.34 3.96 1 6 C1.66 6 2.32 6 3 6 C3 6.66 3 7.32 3 8 C3.66 7.67 4.32 7.34 5 7 C5 5.02 5 3.04 5 1 C5.66 1.33 6.32 1.66 7 2 C7 2.66 7 3.32 7 4 C7.99 4.33 8.98 4.66 10 5 C8 8 6 11 4 14 C3.01 13.67 2.02 13.34 1 13 C1 12.34 1 11.68 1 11 C0.34 11 -0.32 11 -1 11 C-1 10.34 -1 9.68 -1 9 C-1.99 8.34 -2.98 7.68 -4 7 C-2.68 4.69 -1.36 2.38 0 0 Z M7 0 C7.99 0.495 7.99 0.495 9 1 C8.01 1.495 8.01 1.495 7 2 C7 1.34 7 0.68 7 0 Z " fill="#0C2537" transform="translate(431,542)"/>
<path d="M0 0 C0.66 0.33 1.32 0.66 2 1 C2.625 4.0625 2.625 4.0625 3 7 C2.34 7 1.68 7 1 7 C0.67 7.99 0.34 8.98 0 10 C-0.66 10 -1.32 10 -2 10 C-2.33 10.99 -2.66 11.98 -3 13 C-5.97 12.505 -5.97 12.505 -9 12 C-7.92289822 7.69159287 -6.96052484 4.36423277 -4 1 C-4 1.99 -4 2.98 -4 4 C-3.34 4 -2.68 4 -2 4 C-1.34 2.68 -0.68 1.36 0 0 Z " fill="#0B2233" transform="translate(518,293)"/>
<path d="M0 0 C2.25 -0.25 2.25 -0.25 5 0 C7.3125 2 7.3125 2 9 4 C8.01 4.33 7.02 4.66 6 5 C6 7.31 6 9.62 6 12 C4.35 12 2.7 12 1 12 C0.67 11.01 0.34 10.02 0 9 C-0.33 9.99 -0.66 10.98 -1 12 C-3.0625 12.6875 -3.0625 12.6875 -5 13 C-4.57692877 11.68277821 -4.13602514 10.37127336 -3.6875 9.0625 C-3.44386719 8.33160156 -3.20023438 7.60070312 -2.94921875 6.84765625 C-2 5 -2 5 1 4 C1.66 4.33 2.32 4.66 3 5 C2.2236068 1.9254644 2.2236068 1.9254644 0 0 Z " fill="#0D293C" transform="translate(639,422)"/>
<path d="M0 0 C0.8971875 0.309375 0.8971875 0.309375 1.8125 0.625 C1.8125 2.605 1.8125 4.585 1.8125 6.625 C0.8225 6.955 -0.1675 7.285 -1.1875 7.625 C-1.92073796 9.64008358 -1.92073796 9.64008358 -2.1875 11.625 C-2.8475 11.625 -3.5075 11.625 -4.1875 11.625 C-4.5175 10.635 -4.8475 9.645 -5.1875 8.625 C-6.48105827 7.25304426 -7.81048702 5.91317344 -9.1875 4.625 C-8.5275 3.635 -7.8675 2.645 -7.1875 1.625 C-6.5275 1.625 -5.8675 1.625 -5.1875 1.625 C-2.1875 -0.375 -2.1875 -0.375 0 0 Z " fill="#0B2638" transform="translate(795.1875,680.375)"/>
<path d="M0 0 C2 3 2 3 3 6 C1.5625 9.1875 1.5625 9.1875 0 12 C-0.33 11.34 -0.66 10.68 -1 10 C-1.66 10 -2.32 10 -3 10 C-3 10.99 -3 11.98 -3 13 C-3.99 12.67 -4.98 12.34 -6 12 C-6.6875 9.9375 -6.6875 9.9375 -7 8 C-6.01 7.67 -5.02 7.34 -4 7 C-4.66 6.67 -5.32 6.34 -6 6 C-6 4.68 -6 3.36 -6 2 C-4.35 2.33 -2.7 2.66 -1 3 C-0.67 2.01 -0.34 1.02 0 0 Z " fill="#0C283B" transform="translate(296,450)"/>
<path d="M0 0 C-0.33 1.98 -0.66 3.96 -1 6 C-1.99 6 -2.98 6 -4 6 C-4 6.99 -4 7.98 -4 9 C-5.8125 9.625 -5.8125 9.625 -8 10 C-8.99 9.34 -9.98 8.68 -11 8 C-10.45700313 4.19902189 -8.92723228 2.42542103 -6 0 C-3.33960928 -1.01720822 -2.57437055 -1.28718528 0 0 Z " fill="#0B2233" transform="translate(437,583)"/>
<path d="M0 0 C3.875 1.75 3.875 1.75 5 4 C7.01669827 5.13350534 7.01669827 5.13350534 9 6 C8.01 8.31 7.02 10.62 6 13 C4.140625 12.81640625 4.140625 12.81640625 2 12 C0.734375 9.71484375 0.734375 9.71484375 -0.25 6.9375 C-0.58515625 6.01839844 -0.9203125 5.09929688 -1.265625 4.15234375 C-1.50796875 3.44207031 -1.7503125 2.73179687 -2 2 C-1.34 1.34 -0.68 0.68 0 0 Z " fill="#0C2637" transform="translate(443,542)"/>
<path d="M0 0 C1.32 0.66 2.64 1.32 4 2 C4 3.65 4 5.3 4 7 C2.5437328 7.36256858 1.08488815 7.71479793 -0.375 8.0625 C-1.18710937 8.25972656 -1.99921875 8.45695313 -2.8359375 8.66015625 C-5 9 -5 9 -7 8 C-6.25 3.25 -6.25 3.25 -4 1 C-3.01 1 -2.02 1 -1 1 C-0.67 0.67 -0.34 0.34 0 0 Z " fill="#0D293D" transform="translate(631,606)"/>
<path d="M0 0 C1.9375 0.3125 1.9375 0.3125 4 1 C5 4 5 4 5 7 C5.9075 6.54625 6.815 6.0925 7.75 5.625 C10.16666667 4.41666667 12.58333333 3.20833333 15 2 C15.33 2.99 15.66 3.98 16 5 C15.01 6.485 15.01 6.485 14 8 C14 7.34 14 6.68 14 6 C10.73539027 7.80412643 9.11070205 8.83394693 7 12 C6.34 12 5.68 12 5 12 C4.71125 11.195625 4.4225 10.39125 4.125 9.5625 C3.26737432 6.8673532 3.26737432 6.8673532 1 6 C1.66 5.01 2.32 4.02 3 3 C2.01 3 1.02 3 0 3 C0 2.01 0 1.02 0 0 Z " fill="#0C2638" transform="translate(625,574)"/>
<path d="M0 0 C-0.33 0.66 -0.66 1.32 -1 2 C-1.99 2.33 -2.98 2.66 -4 3 C-5.66710346 4.49985609 -5.66710346 4.49985609 -7 6 C-7.99 5.67 -8.98 5.34 -10 5 C-10 3.02 -10 1.04 -10 -1 C-6.06329512 -2.31223496 -3.87511856 -1.24296256 0 0 Z M-10 6 C-9.22227595 8.33317216 -8.57584432 10.61435923 -8 13 C-9.32 13.33 -10.64 13.66 -12 14 C-12 13.34 -12 12.68 -12 12 C-12.66 11.34 -13.32 10.68 -14 10 C-13.01 9.67 -12.02 9.34 -11 9 C-10.67 8.01 -10.34 7.02 -10 6 Z " fill="#0C2638" transform="translate(557,559)"/>
<path d="M0 0 C0.99 0.33 1.98 0.66 3 1 C2.01 2.485 2.01 2.485 1 4 C0.34 4 -0.32 4 -1 4 C-0.87625 5.2684375 -0.87625 5.2684375 -0.75 6.5625 C-1.08144426 11.11985858 -2.42042228 13.24118675 -5 17 C-5.99 17.33 -6.98 17.66 -8 18 C-8 15.16032769 -7.59732819 12.76264289 -7 10 C-5.68 10 -4.36 10 -3 10 C-3 9.01 -3 8.02 -3 7 C-4.32 7.33 -5.64 7.66 -7 8 C-7 7.34 -7 6.68 -7 6 C-6.34 6 -5.68 6 -5 6 C-5 5.34 -5 4.68 -5 4 C-4.01 3.67 -3.02 3.34 -2 3 C-1.34 2.01 -0.68 1.02 0 0 Z " fill="#0B2335" transform="translate(726,543)"/>
<path d="M0 0 C0 0.99 0 1.98 0 3 C1.65 3.33 3.3 3.66 5 4 C3.625 5.5 3.625 5.5 2 7 C1.34 7 0.68 7 0 7 C-0.61875 7.680625 -1.2375 8.36125 -1.875 9.0625 C-2.57625 9.701875 -3.2775 10.34125 -4 11 C-6.25 10.75 -6.25 10.75 -8 10 C-7.61508669 5.50934475 -5.14531178 0 0 0 Z " fill="#0B2132" transform="translate(568,460)"/>
<path d="M0 0 C0.66 0 1.32 0 2 0 C3 1 4 2 5 3 C5.99 3.33 6.98 3.66 8 4 C8.33 3.34 8.66 2.68 9 2 C9.66 3.32 10.32 4.64 11 6 C9.906875 6.28875 8.81375 6.5775 7.6875 6.875 C3.95986155 7.81893204 3.95986155 7.81893204 1 10 C0.01 9.67 -0.98 9.34 -2 9 C-1.34 6.03 -0.68 3.06 0 0 Z " fill="#0D2B3F" transform="translate(623,621)"/>
<path d="M0 0 C0.66 0 1.32 0 2 0 C2.66 1.32 3.32 2.64 4 4 C4.66 4 5.32 4 6 4 C6.66 5.98 7.32 7.96 8 10 C6.35 10.33 4.7 10.66 3 11 C2.34 10.01 1.68 9.02 1 8 C-1.58380177 7.74969023 -1.58380177 7.74969023 -4 8 C-2.66666667 5.33333333 -1.33333333 2.66666667 0 0 Z " fill="#0B273A" transform="translate(512,617)"/>
<path d="M0 0 C0.66 0.33 1.32 0.66 2 1 C2 1.66 2 2.32 2 3 C2.66 3 3.32 3 4 3 C2.49860488 7.20390632 -0.17275043 8.89110738 -4 11 C-4.99 10.67 -5.98 10.34 -7 10 C-7.33 9.01 -7.66 8.02 -8 7 C-7.236875 6.5875 -6.47375 6.175 -5.6875 5.75 C-3.0633358 4.04124191 -1.69678024 2.58982247 0 0 Z " fill="#0C283A" transform="translate(656,423)"/>
<path d="M0 0 C0.99 0.33 1.98 0.66 3 1 C2.625 3.4375 2.625 3.4375 2 6 C1.01 6.495 1.01 6.495 0 7 C-0.99 8.485 -0.99 8.485 -2 10 C-4.625 10.6875 -4.625 10.6875 -7 11 C-6.67 8.03 -6.34 5.06 -6 2 C-4.02 2 -2.04 2 0 2 C0 1.34 0 0.68 0 0 Z " fill="#0C293B" transform="translate(597,442)"/>
<path d="M0 0 C0.66 0.33 1.32 0.66 2 1 C2 2.32 2 3.64 2 5 C2.66 5.66 3.32 6.32 4 7 C2.12050295 10.57104439 0.82946843 12.54744301 -3 14 C-3 13.01 -3 12.02 -3 11 C-3.061875 9.865625 -3.12375 8.73125 -3.1875 7.5625 C-2.99129211 3.83455017 -2.52705797 2.63235205 0 0 Z " fill="#0E2C41" transform="translate(527,547)"/>
<path d="M0 0 C0.66 0 1.32 0 2 0 C2.96070434 2.88211302 3.10581883 4.69850044 3.0625 7.6875 C3.05347656 8.49574219 3.04445313 9.30398438 3.03515625 10.13671875 C3.02355469 10.75160156 3.01195312 11.36648438 3 12 C2.34 12 1.68 12 1 12 C1.33 13.32 1.66 14.64 2 16 C-2 16 -2 16 -3.75 14.5 C-4.1625 14.005 -4.575 13.51 -5 13 C-4.34 12.01 -3.68 11.02 -3 10 C-2.34 10.33 -1.68 10.66 -1 11 C-0.83197949 9.54182203 -0.66562857 8.0834516 -0.5 6.625 C-0.4071875 5.81289063 -0.314375 5.00078125 -0.21875 4.1640625 C0.03352351 2.03087175 0.03352351 2.03087175 0 0 Z " fill="#0B2435" transform="translate(655,534)"/>
<path d="M0 0 C2 1 2 1 2 1 Z M-1 1 C0.32 1.66 1.64 2.32 3 3 C2.34 3 1.68 3 1 3 C0.8453125 3.9590625 0.8453125 3.9590625 0.6875 4.9375 C0.460625 5.618125 0.23375 6.29875 0 7 C-0.99 7.33 -1.98 7.66 -3 8 C-3.66 8.66 -4.32 9.32 -5 10 C-6.98821313 10.39764263 -8.98944339 10.73775349 -11 11 C-9.92872149 7.66713353 -8.40015637 6.48989056 -5.4375 4.875 C-1.96468026 3.40524759 -1.96468026 3.40524759 -1 1 Z " fill="#0B2538" transform="translate(527,510)"/>
<path d="M0 0 C0.66 0 1.32 0 2 0 C3.125 5.75 3.125 5.75 2 8 C0.35 8 -1.3 8 -3 8 C-3.33 8.99 -3.66 9.98 -4 11 C-5.42944945 8.64561267 -6.08661261 7.51967567 -5.625 4.75 C-5.41875 4.1725 -5.2125 3.595 -5 3 C-3.35 3.33 -1.7 3.66 0 4 C0 2.68 0 1.36 0 0 Z " fill="#0C2739" transform="translate(547,376)"/>
<path d="M0 0 C-1.20381448 2.49361571 -2.45428722 4.68143083 -4 7 C-4.99 7.33 -5.98 7.66 -7 8 C-7.66 8.66 -8.32 9.32 -9 10 C-9.33 9.01 -9.66 8.02 -10 7 C-9.34 6.67 -8.68 6.34 -8 6 C-7.835 5.01 -7.67 4.02 -7.5 3 C-7.335 2.01 -7.17 1.02 -7 0 C-4.3333581 -1.33332095 -2.83319697 -0.67102033 0 0 Z " fill="#0C2638" transform="translate(469,347)"/>
<path d="M0 0 C2.475 0.99 2.475 0.99 5 2 C5 5.76687864 4.76462683 6.91190305 3 10 C2.34 10 1.68 10 1 10 C1 9.01 1 8.02 1 7 C-0.65 6.67 -2.3 6.34 -4 6 C-3.34 5.195625 -2.68 4.39125 -2 3.5625 C0.10254514 1.41038085 0.10254514 1.41038085 0 0 Z " fill="#0D293D" transform="translate(609,601)"/>
<path d="M0 0 C1.65 1.65 3.3 3.3 5 5 C4.01 7.31 3.02 9.62 2 12 C1.01 12 0.02 12 -1 12 C-2.6875 10 -2.6875 10 -4 8 C-3.01 7.4121875 -3.01 7.4121875 -2 6.8125 C0.29166667 5.14583333 0.29166667 5.14583333 0.25 2.3125 C0.1675 1.549375 0.085 0.78625 0 0 Z " fill="#0A2233" transform="translate(639,553)"/>
<path d="M0 0 C2.71042158 2.27325681 3.89276006 3.59578791 4.8125 7.0625 C5 10 5 10 4 13 C3.34 13 2.68 13 2 13 C1.87625 12.21625 1.7525 11.4325 1.625 10.625 C1.20882007 7.85942178 1.20882007 7.85942178 -1 6 C-1.33 5.34 -1.66 4.68 -2 4 C-2.99 3.67 -3.98 3.34 -5 3 C-3.35 2.01 -1.7 1.02 0 0 Z " fill="#0C273B" transform="translate(540,633)"/>
<path d="M0 0 C-0.99 3.63 -1.98 7.26 -3 11 C-3.66 11 -4.32 11 -5 11 C-5.33 11.66 -5.66 12.32 -6 13 C-6.68707555 10.50935112 -7 8.62113708 -7 6 C-7.33 5.34 -7.66 4.68 -8 4 C-7.34 4 -6.68 4 -6 4 C-6 3.34 -6 2.68 -6 2 C-2.25 0 -2.25 0 0 0 Z " fill="#0A2132" transform="translate(667,410)"/>
<path d="M0 0 C0.33 0.66 0.66 1.32 1 2 C3.52733235 2.65555119 3.52733235 2.65555119 6 3 C5.04735876 7.19162145 4.36739592 8.7207791 0.875 11.375 C-0.07375 11.91125 -1.0225 12.4475 -2 13 C-0.79618552 10.50638429 0.45428722 8.31856917 2 6 C0.68 6 -0.64 6 -2 6 C-1.125 1.125 -1.125 1.125 0 0 Z " fill="#0B2436" transform="translate(375,407)"/>
<path d="M0 0 C0.33 0.99 0.66 1.98 1 3 C1.99 2.67 2.98 2.34 4 2 C4 2.99 4 3.98 4 5 C1.1875 7.25 1.1875 7.25 -2 9 C-2.99 8.67 -3.98 8.34 -5 8 C-4.45773019 4.20411134 -2.79872437 2.52788007 0 0 Z " fill="#0D283C" transform="translate(508,522)"/>
<path d="M0 0 C0.66 0.33 1.32 0.66 2 1 C2 1.66 2 2.32 2 3 C2.99 2.67 3.98 2.34 5 2 C5 2.99 5 3.98 5 5 C5.66 5 6.32 5 7 5 C6.67 6.32 6.34 7.64 6 9 C4.35 9 2.7 9 1 9 C0.34 7.68 -0.32 6.36 -1 5 C-0.34 5 0.32 5 1 5 C0.67 3.35 0.34 1.7 0 0 Z " fill="#0B2333" transform="translate(423,561)"/>
<path d="M0 0 C1.32 0 2.64 0 4 0 C4 1.65 4 3.3 4 5 C4.99 4.67 5.98 4.34 7 4 C6.1875 6.4375 6.1875 6.4375 5 9 C4.01 9.33 3.02 9.66 2 10 C2 9.34 2 8.68 2 8 C1.01 7.67 0.02 7.34 -1 7 C-0.34 6.67 0.32 6.34 1 6 C0.67 4.02 0.34 2.04 0 0 Z " fill="#0C2537" transform="translate(447,560)"/>
<path d="M0 0 C1.65 0 3.3 0 5 0 C5 0.66 5 1.32 5 2 C5.99 2 6.98 2 8 2 C7.67 2.99 7.34 3.98 7 5 C4.03 4.505 4.03 4.505 1 4 C1 4.66 1 5.32 1 6 C-0.65 6.66 -2.3 7.32 -4 8 C-2.68 5.36 -1.36 2.72 0 0 Z " fill="#0B2233" transform="translate(321,416)"/>
<path d="M0 0 C0 0.66 0 1.32 0 2 C-0.99 2 -1.98 2 -3 2 C-2.67 3.32 -2.34 4.64 -2 6 C-2.66 6 -3.32 6 -4 6 C-4.33 6.99 -4.66 7.98 -5 9 C-5 7.68 -5 6.36 -5 5 C-6.65 5.66 -8.3 6.32 -10 7 C-10 3 -10 3 -8.375 1.25 C-5.42277246 -0.30380397 -3.29014997 -0.22432841 0 0 Z " fill="#0B2537" transform="translate(558,640)"/>
<path d="M0 0 C0.103125 0.61875 0.20625 1.2375 0.3125 1.875 C0.87525373 4.36526484 0.87525373 4.36526484 4 6 C3.37240135 8.92879371 2.41377341 11.36095629 1 14 C0.67 13.01 0.34 12.02 0 11 C0.33 10.34 0.66 9.68 1 9 C-0.65 9.66 -2.3 10.32 -4 11 C-3.21681311 7.08406554 -1.60820142 3.63593365 0 0 Z " fill="#0C2638" transform="translate(620,544)"/>
<path d="M0 0 C1.98 0 3.96 0 6 0 C7 3 7 3 7 6 C4.36 6 1.72 6 -1 6 C-0.67 4.02 -0.34 2.04 0 0 Z " fill="#0C283C" transform="translate(539,536)"/>
<path d="M0 0 C0.99 0.33 1.98 0.66 3 1 C3 2.32 3 3.64 3 5 C3.66 5.33 4.32 5.66 5 6 C4.67 8.31 4.34 10.62 4 13 C3.01 13.33 2.02 13.66 1 14 C0.34 13.67 -0.32 13.34 -1 13 C-0.67 12.21625 -0.34 11.4325 0 10.625 C1.11866511 8.15667503 1.11866511 8.15667503 1 6 C0.67 5.67 0.34 5.34 0 5 C-0.04063832 3.33382885 -0.042721 1.66611905 0 0 Z " fill="#0C2434" transform="translate(517,427)"/>
<path d="M0 0 C1.32 0.66 2.64 1.32 4 2 C3.01 2.33 2.02 2.66 1 3 C-0.09166275 4.93330603 -0.09166275 4.93330603 -1 7 C-1.66 7.66 -2.32 8.32 -3 9 C-3.99 8.67 -4.98 8.34 -6 8 C-5.67 7.34 -5.34 6.68 -5 6 C-5.66 6 -6.32 6 -7 6 C-7 5.34 -7 4.68 -7 4 C-6.01 3.67 -5.02 3.34 -4 3 C-3.67 3.33 -3.34 3.66 -3 4 C-2.01 2.68 -1.02 1.36 0 0 Z " fill="#0E2D43" transform="translate(509,348)"/>
<path d="M0 0 C2 2 2 2 2 5 C-0.64 5.33 -3.28 5.66 -6 6 C-6.33 4.35 -6.66 2.7 -7 1 C-3.625 0.375 -3.625 0.375 0 0 Z " fill="#0C2537" transform="translate(630,478)"/>
<path d="M0 0 C1.32 0.66 2.64 1.32 4 2 C3.34 3.98 2.68 5.96 2 8 C-0.31 7.34 -2.62 6.68 -5 6 C-4.67 5.01 -4.34 4.02 -4 3 C-3.01 3 -2.02 3 -1 3 C-0.67 2.01 -0.34 1.02 0 0 Z " fill="#0D273A" transform="translate(652,505)"/>
<path d="M0 0 C0.556875 0.268125 1.11375 0.53625 1.6875 0.8125 C1.3575 1.8025 1.0275 2.7925 0.6875 3.8125 C-0.3025 3.4825 -1.2925 3.1525 -2.3125 2.8125 C-2.60125 3.39 -2.89 3.9675 -3.1875 4.5625 C-4.22916667 6.64583333 -5.27083333 8.72916667 -6.3125 10.8125 C-6.9725 10.1525 -7.6325 9.4925 -8.3125 8.8125 C-8.20408694 5.66852129 -7.02347715 4.46098572 -5 2 C-2.3125 -0.1875 -2.3125 -0.1875 0 0 Z " fill="#0B2334" transform="translate(607.3125,355.1875)"/>
<path d="M0 0 C1.423125 0.495 1.423125 0.495 2.875 1 C5.77062452 2.10159191 5.77062452 2.10159191 8 2 C7.64950425 5.24208567 7.43778819 6.61527704 4.9375 8.8125 C4.298125 9.204375 3.65875 9.59625 3 10 C2.690625 8.906875 2.38125 7.81375 2.0625 6.6875 C1.41662103 4.44592006 0.7376883 2.2130649 0 0 Z " fill="#0F2E44" transform="translate(514,348)"/>
<path d="M0 0 C0.66 0.66 1.32 1.32 2 2 C1.01 2.99 0.02 3.98 -1 5 C-1.66 4.34 -2.32 3.68 -3 3 C-2.01 2.01 -1.02 1.02 0 0 Z M-5 4 C-3 5 -3 5 -3 5 Z M-2 5 C-0.35 5.33 1.3 5.66 3 6 C1.9024777 8.99324263 1.32317108 9.84610901 -1.625 11.25 C-2.40875 11.4975 -3.1925 11.745 -4 12 C-3.34 9.69 -2.68 7.38 -2 5 Z " fill="#0F2D42" transform="translate(625,589)"/>
<path d="M0 0 C0.66 0 1.32 0 2 0 C3.125 6.75 3.125 6.75 2 9 C2.66 9.33 3.32 9.66 4 10 C2.68 10.33 1.36 10.66 0 11 C-1.25664978 8.09399739 -2 6.20395416 -2 3 C-1.34 3 -0.68 3 0 3 C0 2.01 0 1.02 0 0 Z " fill="#0C2436" transform="translate(626,553)"/>
<path d="M0 0 C0 0.99 0 1.98 0 3 C-3.50776784 4.60355101 -6.14354879 5.22036864 -10 5 C-9 2 -9 2 -6.125 0.25 C-3 -1 -3 -1 0 0 Z " fill="#0B2132" transform="translate(756,682)"/>
<path d="M0 0 C-0.33 0.78375 -0.66 1.5675 -1 2.375 C-2.11866511 4.84332497 -2.11866511 4.84332497 -2 7 C-4.4375 6.625 -4.4375 6.625 -7 6 C-7.33 5.34 -7.66 4.68 -8 4 C-7 1 -7 1 -5.125 -0.25 C-3 -1 -3 -1 0 0 Z " fill="#0D293E" transform="translate(611,550)"/>
<path d="M0 0 C0.433125 0.45375 0.86625 0.9075 1.3125 1.375 C3.10798342 3.20024334 3.10798342 3.20024334 6 5 C5.01 5.33 4.02 5.66 3 6 C3 7.32 3 8.64 3 10 C2.34 10 1.68 10 1 10 C1.33 10.99 1.66 11.98 2 13 C1.34 13 0.68 13 0 13 C-0.125 6.375 -0.125 6.375 1 3 C0.34 2.67 -0.32 2.34 -1 2 C-0.67 1.34 -0.34 0.68 0 0 Z " fill="#0D2A3D" transform="translate(511,543)"/>
<path d="M0 0 C0.66 0 1.32 0 2 0 C2 0.99 2 1.98 2 3 C2.66 3.33 3.32 3.66 4 4 C3.67 6.31 3.34 8.62 3 11 C1.68 10.67 0.36 10.34 -1 10 C-2.46726798 6.18510326 -1.43336419 3.70988378 0 0 Z " fill="#0B2232" transform="translate(784,501)"/>
<path d="M0 0 C0.66 0.33 1.32 0.66 2 1 C2 1.66 2 2.32 2 3 C1.01 3 0.02 3 -1 3 C-1 4.32 -1 5.64 -1 7 C-2.78277744 9.01623639 -4.83126157 10.37344618 -7 12 C-7 11.34 -7 10.68 -7 10 C-7.66 10 -8.32 10 -9 10 C-9 9.34 -9 8.68 -9 8 C-7 6.66666667 -5 5.33333333 -3 4 C-1.16699091 1.89424357 -1.16699091 1.89424357 0 0 Z " fill="#0B2638" transform="translate(621,467)"/>
<path d="M0 0 C1.32 0.66 2.64 1.32 4 2 C4 2.99 4 3.98 4 5 C4.99 5 5.98 5 7 5 C7 5.99 7 6.98 7 8 C5.35 8.33 3.7 8.66 2 9 C1.67 7.02 1.34 5.04 1 3 C0.34 3 -0.32 3 -1 3 C-0.67 2.01 -0.34 1.02 0 0 Z " fill="#0A2334" transform="translate(783,639)"/>
<path d="M0 0 C3 1 3 1 6 3 C5.67 3.99 5.34 4.98 5 6 C4.01 6.33 3.02 6.66 2 7 C1.67 6.67 1.34 6.34 1 6 C0.01 6 -0.98 6 -2 6 C-1.49396008 3.83125748 -1.00016187 2.00032373 0 0 Z " fill="#0D2A3E" transform="translate(459,535)"/>
<path d="M0 0 C2.64 0.33 5.28 0.66 8 1 C7.67 2.32 7.34 3.64 7 5 C6.236875 4.835 5.47375 4.67 4.6875 4.5 C1.96403764 3.90854604 1.96403764 3.90854604 -1 4 C-0.67 2.68 -0.34 1.36 0 0 Z " fill="#0E2B3F" transform="translate(308,460)"/>
<path d="M0 0 C2.6875 1.8125 2.6875 1.8125 5 4 C5 4.66 5 5.32 5 6 C4.01 6 3.02 6 2 6 C1.34 6.66 0.68 7.32 0 8 C0 7.34 0 6.68 0 6 C-1.32 5.67 -2.64 5.34 -4 5 C-3.6875 3.0625 -3.6875 3.0625 -3 1 C-2.01 0.67 -1.02 0.34 0 0 Z " fill="#0C273A" transform="translate(646,435)"/>
<path d="M0 0 C0.99 0.33 1.98 0.66 3 1 C3.33 3.31 3.66 5.62 4 8 C3.01 8.33 2.02 8.66 1 9 C0.67 8.01 0.34 7.02 0 6 C-0.66 5.67 -1.32 5.34 -2 5 C-1.34 3.35 -0.68 1.7 0 0 Z " fill="#0B2435" transform="translate(445,355)"/>
<path d="M0 0 C0.66 0.33 1.32 0.66 2 1 C2.20086443 4.71599191 2.1519437 5.77208445 0 9 C-1.65 8.67 -3.3 8.34 -5 8 C-5 7.34 -5 6.68 -5 6 C-4.34 6 -3.68 6 -3 6 C-2.690625 5.195625 -2.38125 4.39125 -2.0625 3.5625 C-1 1 -1 1 0 0 Z " fill="#0B2434" transform="translate(757,537)"/>
<path d="M0 0 C0.99 0.33 1.98 0.66 3 1 C3 2.65 3 4.3 3 6 C2.34 6 1.68 6 1 6 C1 6.99 1 7.98 1 9 C-0.32 8.67 -1.64 8.34 -3 8 C-2.37240135 5.07120629 -1.41377341 2.63904371 0 0 Z " fill="#0D293D" transform="translate(352,446)"/>
<path d="M0 0 C1.98 0 3.96 0 6 0 C5.979375 0.94875 5.95875 1.8975 5.9375 2.875 C5.77448174 5.90666283 5.77448174 5.90666283 7 8 C6.01 8 5.02 8 4 8 C3.67 6.35 3.34 4.7 3 3 C2.01 3 1.02 3 0 3 C0 2.01 0 1.02 0 0 Z M-2 3 C-1.01 3.495 -1.01 3.495 0 4 C-0.99 4.495 -0.99 4.495 -2 5 C-2 4.34 -2 3.68 -2 3 Z " fill="#0F2E44" transform="translate(615,640)"/>
<path d="M0 0 C-4.625 5.875 -4.625 5.875 -8 7 C-8.625 5.1875 -8.625 5.1875 -9 3 C-7 0 -7 0 -4.5 -0.75 C-2 -1 -2 -1 0 0 Z " fill="#0C293D" transform="translate(569,634)"/>
<path d="M0 0 C0.66 0 1.32 0 2 0 C3 1 4 2 5 3 C5.66 3 6.32 3 7 3 C6.34 4.32 5.68 5.64 5 7 C1.48283697 7 0.62878252 6.17554415 -2 4 C-1.34 2.68 -0.68 1.36 0 0 Z M3 4 C4 6 4 6 4 6 Z " fill="#0C2436" transform="translate(558,406)"/>
<path d="M0 0 C0.66 0.99 1.32 1.98 2 3 C1.67 3.66 1.34 4.32 1 5 C1.66 5.33 2.32 5.66 3 6 C1.68 7.65 0.36 9.3 -1 11 C-1 10.01 -1 9.02 -1 8 C-1.66 8 -2.32 8 -3 8 C-1.125 1.125 -1.125 1.125 0 0 Z " fill="#0A1D2B" transform="translate(495,731)"/>
<path d="M0 0 C1.80411967 2.75924185 2.0127245 3.88972103 1.625 7.25 C1.41875 8.1575 1.2125 9.065 1 10 C0.34 10 -0.32 10 -1 10 C-1 10.66 -1 11.32 -1 12 C-1.66 12 -2.32 12 -3 12 C-3.20375803 8.3323555 -2.80451285 6.18443445 -1 3 C-0.67 2.01 -0.34 1.02 0 0 Z " fill="#0B263A" transform="translate(648,669)"/>
<path d="M0 0 C0.185625 0.9590625 0.185625 0.9590625 0.375 1.9375 C0.684375 2.9584375 0.684375 2.9584375 1 4 C1.66 4.33 2.32 4.66 3 5 C3 6.32 3 7.64 3 9 C2.34 9.66 1.68 10.32 1 11 C-2 6.375 -2 6.375 -2 3 C-1.34 2.01 -0.68 1.02 0 0 Z " fill="#0C283A" transform="translate(582,648)"/>
<path d="M0 0 C0.99 0.99 1.98 1.98 3 3 C2.01 4.485 2.01 4.485 1 6 C1.33 6.33 1.66 6.66 2 7 C2.04080783 8.99958364 2.04254356 11.00045254 2 13 C1.34 13 0.68 13 0 13 C0 12.01 0 11.02 0 10 C-0.66 9.67 -1.32 9.34 -2 9 C-1.41196203 5.97580475 -0.77321882 2.98241547 0 0 Z " fill="#0D283D" transform="translate(480,541)"/>
<path d="M0 0 C0.99 0 1.98 0 3 0 C3 1.32 3 2.64 3 4 C3.66 4.33 4.32 4.66 5 5 C4.34 6.65 3.68 8.3 3 10 C2.01 9.67 1.02 9.34 0 9 C-0.33 7.35 -0.66 5.7 -1 4 C-0.34 4 0.32 4 1 4 C0.67 2.68 0.34 1.36 0 0 Z " fill="#0B2537" transform="translate(670,433)"/>
<path d="M0 0 C2.0625 0.4375 2.0625 0.4375 4 1 C4 1.99 4 2.98 4 4 C3.34 4 2.68 4 2 4 C0.3553326 6.46326712 0.3553326 6.46326712 -1 9 C-1.66 8.01 -2.32 7.02 -3 6 C-1.65517241 1.65517241 -1.65517241 1.65517241 0 0 Z " fill="#0C2839" transform="translate(457,410)"/>
<path d="M0 0 C-1.12451727 2.9719385 -2.22293791 5.33440687 -4 8 C-5.32 7.34 -6.64 6.68 -8 6 C-3.38461538 0 -3.38461538 0 0 0 Z " fill="#0C273A" transform="translate(570,556)"/>
<path d="M0 0 C0.99 1.32 1.98 2.64 3 4 C1.68 5.32 0.36 6.64 -1 8 C-1.66 7.67 -2.32 7.34 -3 7 C-3.625 4.4375 -3.625 4.4375 -4 2 C-2.68 1.34 -1.36 0.68 0 0 Z " fill="#0C2739" transform="translate(592,453)"/>
<path d="M0 0 C1.32 0.33 2.64 0.66 4 1 C3.67 1.99 3.34 2.98 3 4 C2.34 4 1.68 4 1 4 C1 5.32 1 6.64 1 8 C1.66 8.33 2.32 8.66 3 9 C2.01 9.33 1.02 9.66 0 10 C0 9.34 0 8.68 0 8 C-0.66 7.67 -1.32 7.34 -2 7 C-1.34 4.69 -0.68 2.38 0 0 Z " fill="#0C2536" transform="translate(769,685)"/>
<path d="M0 0 C0.66 0.66 1.32 1.32 2 2 C0.96508351 4.82249951 0.30084735 5.83374226 -2.375 7.3125 C-5.10579853 8.02770914 -6.39189261 7.9659657 -9 7 C-8.071875 6.401875 -7.14375 5.80375 -6.1875 5.1875 C-3.79745282 3.54727155 -1.91529747 2.1281083 0 0 Z " fill="#0C293E" transform="translate(577,532)"/>
<path d="M0 0 C0.99 0.99 1.98 1.98 3 3 C2.01 3.495 2.01 3.495 1 4 C0.67 4.99 0.34 5.98 0 7 C-1.31647119 7.69937532 -2.65022151 8.36729133 -4 9 C-4.33 9.66 -4.66 10.32 -5 11 C-5.66 11 -6.32 11 -7 11 C-5.54682061 7.6092481 -3.58699688 5.58699688 -1 3 C-0.67 2.01 -0.34 1.02 0 0 Z " fill="#0C2739" transform="translate(801,513)"/>
<path d="M0 0 C2.475 0.495 2.475 0.495 5 1 C5 2.98 5 4.96 5 7 C4.01 7 3.02 7 2 7 C0 4 0 4 0 0 Z " fill="#0A2130" transform="translate(776,501)"/>
<path d="M0 0 C1.98 0.495 1.98 0.495 4 1 C4.33 3.31 4.66 5.62 5 8 C4.01 8.495 4.01 8.495 3 9 C1.66666667 7 0.33333333 5 -1 3 C-0.34 3 0.32 3 1 3 C0.67 2.01 0.34 1.02 0 0 Z " fill="#0B2334" transform="translate(407,468)"/>
<path d="M0 0 C0.66 0 1.32 0 2 0 C2.6875 2.75 2.6875 2.75 3 6 C1.5625 8.375 1.5625 8.375 0 10 C-0.66 9.67 -1.32 9.34 -2 9 C-1.34 6.03 -0.68 3.06 0 0 Z " fill="#0C2333" transform="translate(319,394)"/>
<path d="M0 0 C0.99 0.33 1.98 0.66 3 1 C2.67 1.99 2.34 2.98 2 4 C1.01 4 0.02 4 -1 4 C-1.33 5.32 -1.66 6.64 -2 8 C-2.99 7.67 -3.98 7.34 -5 7 C-4.6189482 4.23737447 -4.16402868 3.15856106 -2.125 1.1875 C-1.42375 0.795625 -0.7225 0.40375 0 0 Z " fill="#0C2639" transform="translate(501,308)"/>
<path d="M0 0 C-2.18181818 9.45454545 -2.18181818 9.45454545 -6 12 C-5.91253716 10.56138706 -5.80434652 9.12402492 -5.6875 7.6875 C-5.62949219 6.88699219 -5.57148437 6.08648438 -5.51171875 5.26171875 C-4.78420948 2.04623884 -3.45396859 0 0 0 Z " fill="#0D2A3E" transform="translate(531,612)"/>
<path d="M0 0 C0.99 0.33 1.98 0.66 3 1 C2.67 1.99 2.34 2.98 2 4 C1.01 4 0.02 4 -1 4 C-1 4.99 -1 5.98 -1 7 C-1.66 7 -2.32 7 -3 7 C-3.33 5.68 -3.66 4.36 -4 3 C-2.1875 1.4375 -2.1875 1.4375 0 0 Z " fill="#091F2F" transform="translate(566,711)"/>
<path d="M0 0 C1.5625 1.1875 1.5625 1.1875 3 3 C2.6875 5.6875 2.6875 5.6875 2 8 C1.01 8 0.02 8 -1 8 C-1.625 5.6875 -1.625 5.6875 -2 3 C-1.34 2.01 -0.68 1.02 0 0 Z " fill="#0E2C41" transform="translate(649,640)"/>
<path d="M0 0 C0.33 0.66 0.66 1.32 1 2 C1.99 1.67 2.98 1.34 4 1 C4.66 1.33 5.32 1.66 6 2 C5.67 2.99 5.34 3.98 5 5 C4.34 4.67 3.68 4.34 3 4 C0.39068734 4.89363605 0.39068734 4.89363605 -2 6 C-2.33 4.35 -2.66 2.7 -3 1 C-2.01 0.67 -1.02 0.34 0 0 Z " fill="#0B2333" transform="translate(690,530)"/>
<path d="M0 0 C0.99 0.33 1.98 0.66 3 1 C3.25 3.25 3.25 3.25 3 6 C1 8.3125 1 8.3125 -1 10 C-1.33 8.35 -1.66 6.7 -2 5 C-1.34 4.67 -0.68 4.34 0 4 C0 2.68 0 1.36 0 0 Z " fill="#0C2739" transform="translate(574,646)"/>
<path d="M0 0 C0.33 0.99 0.66 1.98 1 3 C1.66 3 2.32 3 3 3 C3.33 4.32 3.66 5.64 4 7 C1 7 1 7 -1 6 C-1 5.34 -1 4.68 -1 4 C-1.66 3.67 -2.32 3.34 -3 3 C-2.01 2.01 -1.02 1.02 0 0 Z " fill="#0C2638" transform="translate(673,642)"/>
<path d="M0 0 C0.66 0.66 1.32 1.32 2 2 C1.67 2.66 1.34 3.32 1 4 C1.66 4.33 2.32 4.66 3 5 C2.01 6.485 2.01 6.485 1 8 C0.01 7.67 -0.98 7.34 -2 7 C-2.6875 4.9375 -2.6875 4.9375 -3 3 C-2.34 3 -1.68 3 -1 3 C-0.67 2.01 -0.34 1.02 0 0 Z " fill="#0E293D" transform="translate(511,396)"/>
<path d="M0 0 C0.99 0.66 1.98 1.32 3 2 C3 2.66 3 3.32 3 4 C-3.75 5.125 -3.75 5.125 -6 4 C-4.02 2.68 -2.04 1.36 0 0 Z " fill="#0C2A3E" transform="translate(505,561)"/>
<path d="M0 0 C0.33 1.32 0.66 2.64 1 4 C0.34 4 -0.32 4 -1 4 C-0.34 5.98 0.32 7.96 1 10 C0.01 9.67 -0.98 9.34 -2 9 C-2.3721042 7.67696283 -2.70630173 6.34262065 -3 5 C-3.66 4.67 -4.32 4.34 -5 4 C-3.35 2.68 -1.7 1.36 0 0 Z " fill="#0C2536" transform="translate(548,499)"/>
<path d="M0 0 C1 2 1 2 0.0625 5.125 C-0.288125 6.07375 -0.63875 7.0225 -1 8 C-2.65 7.67 -4.3 7.34 -6 7 C-6 6.34 -6 5.68 -6 5 C-5.01 4.67 -4.02 4.34 -3 4 C-2.67 3.01 -2.34 2.02 -2 1 C-1.34 0.67 -0.68 0.34 0 0 Z " fill="#0E293E" transform="translate(324,452)"/>
<path d="M0 0 C1.60080151 4.00200378 0.29279692 7.04556236 -1 11 C-3.1519437 7.77208445 -3.20086443 6.71599191 -3 3 C-2.34 3 -1.68 3 -1 3 C-0.67 2.01 -0.34 1.02 0 0 Z " fill="#0D2A3D" transform="translate(610,449)"/>
<path d="M0 0 C0.99 0 1.98 0 3 0 C3 0.66 3 1.32 3 2 C3.66 2 4.32 2 5 2 C5.33 2.99 5.66 3.98 6 5 C4.35 5.33 2.7 5.66 1 6 C0 1.125 0 1.125 0 0 Z " fill="#0C283C" transform="translate(508,371)"/>
<path d="M0 0 C-0.66 1.98 -1.32 3.96 -2 6 C-2.66 5.67 -3.32 5.34 -4 5 C-4.33 5.66 -4.66 6.32 -5 7 C-5.66 6.67 -6.32 6.34 -7 6 C-5.52522876 2.59668175 -4.14385429 0 0 0 Z " fill="#0B2333" transform="translate(577,668)"/>
<path d="M0 0 C0.66 0.33 1.32 0.66 2 1 C0.8141763 4.37503669 -0.27573689 6.64722731 -3 9 C-3 6.69 -3 4.38 -3 2 C-2.34 2 -1.68 2 -1 2 C-0.67 1.34 -0.34 0.68 0 0 Z " fill="#0C2538" transform="translate(541,654)"/>
<path d="M0 0 C1.65 0 3.3 0 5 0 C4.835 0.598125 4.67 1.19625 4.5 1.8125 C3.8885876 4.11344336 3.8885876 4.11344336 4 7 C2.68 6.67 1.36 6.34 0 6 C0 4.02 0 2.04 0 0 Z " fill="#0C2536" transform="translate(554,656)"/>
<path d="M0 0 C2.475 0.99 2.475 0.99 5 2 C4.67 2.99 4.34 3.98 4 5 C3.01 5.33 2.02 5.66 1 6 C1 5.34 1 4.68 1 4 C0.34 4 -0.32 4 -1 4 C-0.67 2.68 -0.34 1.36 0 0 Z " fill="#0D2B40" transform="translate(513,609)"/>
<path d="M0 0 C0.99 0.33 1.98 0.66 3 1 C2.67 2.32 2.34 3.64 2 5 C0.68 5.33 -0.64 5.66 -2 6 C-1.34 4.02 -0.68 2.04 0 0 Z M-4 5 C-3.34 5.66 -2.68 6.32 -2 7 C-2.99 7.66 -3.98 8.32 -5 9 C-4.67 7.68 -4.34 6.36 -4 5 Z " fill="#0D2A3D" transform="translate(471,547)"/>
<path d="M0 0 C-0.5859375 6.15234375 -0.5859375 6.15234375 -1 8 C-1.99 8.495 -1.99 8.495 -3 9 C-5.125 4.375 -5.125 4.375 -4 1 C-2 0 -2 0 0 0 Z " fill="#0B2333" transform="translate(802,536)"/>
<path d="M0 0 C0.33 0.99 0.66 1.98 1 3 C0.67 3.66 0.34 4.32 0 5 C-0.66 5 -1.32 5 -2 5 C-2 5.66 -2 6.32 -2 7 C-2.99 7.33 -3.98 7.66 -5 8 C-4.64950425 4.75791433 -4.43778819 3.38472296 -1.9375 1.1875 C-1.298125 0.795625 -0.65875 0.40375 0 0 Z " fill="#0C2537" transform="translate(643,447)"/>
<path d="M0 0 C2.475 0.99 2.475 0.99 5 2 C4.01 3.98 3.02 5.96 2 8 C1.34 8 0.68 8 0 8 C0 5.36 0 2.72 0 0 Z M1 1 C2 3 2 3 2 3 Z " fill="#0A2334" transform="translate(480,394)"/>
<path d="M0 0 C0.99 0 1.98 0 3 0 C3 0.66 3 1.32 3 2 C2.34 2 1.68 2 1 2 C1 3.32 1 4.64 1 6 C-0.65 6.33 -2.3 6.66 -4 7 C-1.125 1.125 -1.125 1.125 0 0 Z " fill="#0D2839" transform="translate(560,366)"/>
<path d="M0 0 C0.66 0.33 1.32 0.66 2 1 C0.875 2.9375 0.875 2.9375 -1 5 C-4.1875 5.75 -4.1875 5.75 -7 6 C-7 5.34 -7 4.68 -7 4 C-6.34 4 -5.68 4 -5 4 C-4.67 3.01 -4.34 2.02 -4 1 C-3.01 1 -2.02 1 -1 1 C-0.67 0.67 -0.34 0.34 0 0 Z " fill="#0C2739" transform="translate(693,660)"/>
<path d="M0 0 C0.66 0.33 1.32 0.66 2 1 C2 2.65 2 4.3 2 6 C0.68 6 -0.64 6 -2 6 C-2 4.35 -2 2.7 -2 1 C-1.34 0.67 -0.68 0.34 0 0 Z " fill="#0C273A" transform="translate(654,661)"/>
<path d="M0 0 C3 0 3 0 5 1 C4.34 2.65 3.68 4.3 3 6 C-0.875 4.25 -0.875 4.25 -2 2 C-1.34 2 -0.68 2 0 2 C0 1.34 0 0.68 0 0 Z " fill="#0D2C41" transform="translate(624,646)"/>
<path d="M0 0 C1 3 1 3 -0.3125 5.6875 C-0.869375 6.450625 -1.42625 7.21375 -2 8 C-2.66 8 -3.32 8 -4 8 C-3.50168276 4.31245243 -2.89932357 2.39509338 0 0 Z " fill="#0E2C42" transform="translate(590,543)"/>
<path d="M0 0 C2.31 0.33 4.62 0.66 7 1 C5.25 4.875 5.25 4.875 3 6 C3 5.01 3 4.02 3 3 C2.01 3.33 1.02 3.66 0 4 C-0.33 3.34 -0.66 2.68 -1 2 C-0.67 1.34 -0.34 0.68 0 0 Z " fill="#092230" transform="translate(525,447)"/>
<path d="M0 0 C0 0.99 0 1.98 0 3 C0.99 4.485 0.99 4.485 2 6 C1.34 6 0.68 6 0 6 C-0.33 6.99 -0.66 7.98 -1 9 C-1.66 8.34 -2.32 7.68 -3 7 C-2.75 3.9375 -2.75 3.9375 -2 1 C-1.34 0.67 -0.68 0.34 0 0 Z " fill="#0C2435" transform="translate(448,419)"/>
<path d="M0 0 C0.33 0.99 0.66 1.98 1 3 C2.65 3.33 4.3 3.66 6 4 C5.67 4.66 5.34 5.32 5 6 C2.5 6.6875 2.5 6.6875 0 7 C-1 6 -1 6 -1.125 3.5 C-1 1 -1 1 0 0 Z " fill="#0B2537" transform="translate(415,387)"/>
<path d="M0 0 C0.66 0.33 1.32 0.66 2 1 C2.29296875 7.0546875 2.29296875 7.0546875 2 9 C1.01 9.66 0.02 10.32 -1 11 C-0.73958333 9.01432292 -0.47916667 7.02864583 -0.21875 5.04296875 C0.053233 2.84528294 0.053233 2.84528294 0 0 Z " fill="#091C2C" transform="translate(640,710)"/>
<path d="M0 0 C1.32 0.66 2.64 1.32 4 2 C2.6875 4.5 2.6875 4.5 1 7 C0.01 7 -0.98 7 -2 7 C-1.34 4.69 -0.68 2.38 0 0 Z " fill="#0B2638" transform="translate(664,671)"/>
<path d="M0 0 C1.32 0.99 2.64 1.98 4 3 C3.34 4.32 2.68 5.64 2 7 C1.01 6.67 0.02 6.34 -1 6 C-0.67 4.02 -0.34 2.04 0 0 Z " fill="#0C273A" transform="translate(641,663)"/>
<path d="M0 0 C0.66 0 1.32 0 2 0 C2 0.99 2 1.98 2 3 C2.99 2.67 3.98 2.34 5 2 C4.67 2.99 4.34 3.98 4 5 C2.35 5.33 0.7 5.66 -1 6 C-0.67 4.02 -0.34 2.04 0 0 Z " fill="#0D2B40" transform="translate(463,529)"/>
<path d="M0 0 C0.99 0.33 1.98 0.66 3 1 C2.34 2.98 1.68 4.96 1 7 C0.34 7 -0.32 7 -1 7 C-0.67 4.69 -0.34 2.38 0 0 Z " fill="#0C2436" transform="translate(568,480)"/>
<path d="M0 0 C0.99 1.32 1.98 2.64 3 4 C-0.05263664 4.98120464 -1.94736336 4.98120464 -5 4 C-4.67 3.01 -4.34 2.02 -4 1 C-1.9375 0.3125 -1.9375 0.3125 0 0 Z " fill="#0C2434" transform="translate(508,467)"/>
<path d="M0 0 C0.66 0 1.32 0 2 0 C2.93065133 2.60582371 3.14917407 3.64198224 2.0625 6.25 C1.5365625 7.11625 1.5365625 7.11625 1 8 C-0.42944945 5.64561267 -1.08661261 4.51967567 -0.625 1.75 C-0.41875 1.1725 -0.2125 0.595 0 0 Z " fill="#0B2335" transform="translate(575,436)"/>
<path d="M0 0 C2.97 0.495 2.97 0.495 6 1 C5.67 2.32 5.34 3.64 5 5 C4.34 5 3.68 5 3 5 C2.34 5.66 1.68 6.32 1 7 C1 6.01 1 5.02 1 4 C0.6937566 2.66018514 0.36548445 1.32488113 0 0 Z " fill="#0B2132" transform="translate(668,405)"/>
<path d="M0 0 C2 1.375 2 1.375 4 3 C4 3.66 4 4.32 4 5 C2.35 5.66 0.7 6.32 -1 7 C-1.33 5.02 -1.66 3.04 -2 1 C-1.34 0.67 -0.68 0.34 0 0 Z " fill="#0B2334" transform="translate(556,319)"/>
<path d="M0 0 C0.33 0.99 0.66 1.98 1 3 C3.01508358 3.73323796 3.01508358 3.73323796 5 4 C3.02 4.99 1.04 5.98 -1 7 C-1.33 5.02 -1.66 3.04 -2 1 C-1.34 0.67 -0.68 0.34 0 0 Z " fill="#0C212F" transform="translate(556,684)"/>
<path d="M0 0 C1.98 0.495 1.98 0.495 4 1 C4 2.32 4 3.64 4 5 C2.68 5.33 1.36 5.66 0 6 C-1.24546405 3.50907189 -0.7767578 2.58919267 0 0 Z " fill="#0B2336" transform="translate(623,680)"/>
<path d="M0 0 C2.475 0.99 2.475 0.99 5 2 C4.67 2.99 4.34 3.98 4 5 C3.34 4.34 2.68 3.68 2 3 C1.01 3.33 0.02 3.66 -1 4 C-0.67 2.68 -0.34 1.36 0 0 Z " fill="#0B2233" transform="translate(734,654)"/>
<path d="M0 0 C0.99 0.33 1.98 0.66 3 1 C2.01 2.98 1.02 4.96 0 7 C-0.66 6.67 -1.32 6.34 -2 6 C-1.125 1.125 -1.125 1.125 0 0 Z " fill="#0B2231" transform="translate(681,588)"/>
<path d="M0 0 C0 0.66 0 1.32 0 2 C-0.66 2 -1.32 2 -2 2 C-2.33 2.66 -2.66 3.32 -3 4 C-5.0625 4.625 -5.0625 4.625 -7 5 C-7 3.68 -7 2.36 -7 1 C-2.25 0 -2.25 0 0 0 Z " fill="#0B2739" transform="translate(435,527)"/>
<path d="M0 0 C0.99 0 1.98 0 3 0 C2.25 4.75 2.25 4.75 0 7 C-0.66 6.01 -1.32 5.02 -2 4 C-1.34 2.68 -0.68 1.36 0 0 Z " fill="#0C2433" transform="translate(752,501)"/>
<path d="M0 0 C0.66 0.33 1.32 0.66 2 1 C2 1.66 2 2.32 2 3 C1.34 3 0.68 3 0 3 C-0.33 3.99 -0.66 4.98 -1 6 C-1.99 5.67 -2.98 5.34 -4 5 C-3 2 -3 2 0 0 Z " fill="#0B2232" transform="translate(368,493)"/>
<path d="M0 0 C0.66 0.66 1.32 1.32 2 2 C1.625 4.125 1.625 4.125 1 6 C-0.65 5.67 -2.3 5.34 -4 5 C-2.68 3.35 -1.36 1.7 0 0 Z " fill="#0B2233" transform="translate(783,490)"/>
<path d="M0 0 C1.32 0.66 2.64 1.32 4 2 C2.625 4.5 2.625 4.5 1 7 C0.34 7 -0.32 7 -1 7 C-0.7525 6.1028125 -0.7525 6.1028125 -0.5 5.1875 C0.1114124 2.88655664 0.1114124 2.88655664 0 0 Z " fill="#09202F" transform="translate(438,478)"/>
<path d="M0 0 C0.99 0.99 1.98 1.98 3 3 C2.34 3 1.68 3 1 3 C1 4.65 1 6.3 1 8 C0.01 8 -0.98 8 -2 8 C-1.125 1.125 -1.125 1.125 0 0 Z " fill="#0C2435" transform="translate(435,473)"/>
<path d="M0 0 C0 0.66 0 1.32 0 2 C-1.96466413 3.06775224 -3.96855359 4.06553465 -6 5 C-6.66 4.67 -7.32 4.34 -8 4 C-8 3.34 -8 2.68 -8 2 C-3.61016949 -1.20338983 -3.61016949 -1.20338983 0 0 Z " fill="#0D2A3E" transform="translate(502,387)"/>
<path d="M0 0 C0.99 0.33 1.98 0.66 3 1 C2.67 3.31 2.34 5.62 2 8 C0.68 6.68 -0.64 5.36 -2 4 C-1.34 2.68 -0.68 1.36 0 0 Z " fill="#0C273B" transform="translate(479,372)"/>
<path d="M0 0 C1.32 1.32 2.64 2.64 4 4 C2.35 4.66 0.7 5.32 -1 6 C-1.33 4.35 -1.66 2.7 -2 1 C-1.34 0.67 -0.68 0.34 0 0 Z " fill="#0B2331" transform="translate(476,301)"/>
<path d="M0 0 C0.99 0.33 1.98 0.66 3 1 C2.67 2.65 2.34 4.3 2 6 C0.68 6 -0.64 6 -2 6 C-1.34 4.02 -0.68 2.04 0 0 Z " fill="#0C2639" transform="translate(547,656)"/>
<path d="M0 0 C0.66 0.33 1.32 0.66 2 1 C1.34 2.98 0.68 4.96 0 7 C-0.99 6.67 -1.98 6.34 -3 6 C-2.625 3.5625 -2.625 3.5625 -2 1 C-1.34 0.67 -0.68 0.34 0 0 Z " fill="#0C2839" transform="translate(517,633)"/>
<path d="M0 0 C0.99 0.33 1.98 0.66 3 1 C3 1.66 3 2.32 3 3 C2.34 3.66 1.68 4.32 1 5 C0.01 5 -0.98 5 -2 5 C-2 3.68 -2 2.36 -2 1 C-1.34 0.67 -0.68 0.34 0 0 Z " fill="#0F2F44" transform="translate(576,620)"/>
<path d="M0 0 C0.66 0.99 1.32 1.98 2 3 C1.01 4.485 1.01 4.485 0 6 C0 5.34 0 4.68 0 4 C-1.65 4.33 -3.3 4.66 -5 5 C-3.35 3.35 -1.7 1.7 0 0 Z " fill="#0A202F" transform="translate(639,576)"/>
<path d="M0 0 C1.65 0 3.3 0 5 0 C4.34 1.65 3.68 3.3 3 5 C1.35 4.67 -0.3 4.34 -2 4 C-1.34 2.68 -0.68 1.36 0 0 Z " fill="#0C283C" transform="translate(598,556)"/>
<path d="M0 0 C0.99 0.33 1.98 0.66 3 1 C2.34 2.98 1.68 4.96 1 7 C0.34 6.67 -0.32 6.34 -1 6 C-1.042721 4.33388095 -1.04063832 2.66617115 -1 1 C-0.67 0.67 -0.34 0.34 0 0 Z " fill="#0E2C40" transform="translate(457,528)"/>
<path d="M0 0 C0.66 0 1.32 0 2 0 C2.33 1.32 2.66 2.64 3 4 C2.34 4 1.68 4 1 4 C1 4.99 1 5.98 1 7 C0.01 6.67 -0.98 6.34 -2 6 C-1.34 4.02 -0.68 2.04 0 0 Z " fill="#0B2536" transform="translate(580,521)"/>
<path d="M0 0 C0.33 0.66 0.66 1.32 1 2 C1.99 2.33 2.98 2.66 4 3 C3.67 4.32 3.34 5.64 3 7 C1.68 5.68 0.36 4.36 -1 3 C-0.67 2.01 -0.34 1.02 0 0 Z " fill="#0D283A" transform="translate(623,517)"/>
<path d="M0 0 C0.66 0 1.32 0 2 0 C2.33 0.99 2.66 1.98 3 3 C1.5625 5.1875 1.5625 5.1875 0 7 C-1 6 -1 6 -1.125 3.5 C-1 1 -1 1 0 0 Z " fill="#0E293C" transform="translate(375,472)"/>
<path d="M0 0 C0.99 0.66 1.98 1.32 3 2 C2.01 2.33 1.02 2.66 0 3 C-0.73323796 5.01508358 -0.73323796 5.01508358 -1 7 C-1.99 6.67 -2.98 6.34 -4 6 C-2.68 4.02 -1.36 2.04 0 0 Z " fill="#0B2537" transform="translate(616,454)"/>
<path d="M0 0 C1.98 0 3.96 0 6 0 C6.33 0.99 6.66 1.98 7 3 C5.35 3.66 3.7 4.32 2 5 C2 4.01 2 3.02 2 2 C1.34 2 0.68 2 0 2 C0 1.34 0 0.68 0 0 Z " fill="#0C283B" transform="translate(361,443)"/>
<path d="M0 0 C0 0.99 0 1.98 0 3 C-2.5 4.6875 -2.5 4.6875 -5 6 C-5 4.35 -5 2.7 -5 1 C-3.35 0.67 -1.7 0.34 0 0 Z " fill="#0A2333" transform="translate(533,424)"/>
<path d="M0 0 C1.32 0.33 2.64 0.66 4 1 C2.68 3.31 1.36 5.62 0 8 C-0.66 7.67 -1.32 7.34 -2 7 C-1.34 4.69 -0.68 2.38 0 0 Z " fill="#0A2030" transform="translate(351,398)"/>
<path d="M0 0 C0.33 0.99 0.66 1.98 1 3 C0.01 4.485 0.01 4.485 -1 6 C-1.66 6 -2.32 6 -3 6 C-3.33 5.01 -3.66 4.02 -4 3 C-2.68 2.01 -1.36 1.02 0 0 Z " fill="#0C2638" transform="translate(552,634)"/>
<path d="M0 0 C1.98 0.495 1.98 0.495 4 1 C3.67 1.66 3.34 2.32 3 3 C2.34 3 1.68 3 1 3 C1.33 3.99 1.66 4.98 2 6 C1.01 5.67 0.02 5.34 -1 5 C-0.67 3.35 -0.34 1.7 0 0 Z " fill="#0B2535" transform="translate(676,632)"/>
<path d="M0 0 C0.66 0.66 1.32 1.32 2 2 C0.68 2.99 -0.64 3.98 -2 5 C-2.99 4.34 -3.98 3.68 -5 3 C-4 1 -4 1 -2.0625 0.25 C-1.381875 0.1675 -0.70125 0.085 0 0 Z " fill="#0B2333" transform="translate(687,557)"/>
<path d="M0 0 C0.33 0.99 0.66 1.98 1 3 C-0.4375 5.6875 -0.4375 5.6875 -2 8 C-2.99 7.67 -3.98 7.34 -5 7 C-4.67 6.34 -4.34 5.68 -4 5 C-3.34 5 -2.68 5 -2 5 C-1.34 3.35 -0.68 1.7 0 0 Z " fill="#0C283C" transform="translate(461,546)"/>
<path d="M0 0 C0.66 0.66 1.32 1.32 2 2 C1.34 3.32 0.68 4.64 0 6 C-0.66 6 -1.32 6 -2 6 C-1.125 1.125 -1.125 1.125 0 0 Z M-4 6 C-3.34 6 -2.68 6 -2 6 C-2 6.66 -2 7.32 -2 8 C-2.66 8 -3.32 8 -4 8 C-4 7.34 -4 6.68 -4 6 Z " fill="#0B273A" transform="translate(472,538)"/>
<path d="M0 0 C0.99 0.33 1.98 0.66 3 1 C2.25 2.9375 2.25 2.9375 1 5 C-1.125 5.75 -1.125 5.75 -3 6 C-3 5.34 -3 4.68 -3 4 C-2.34 4 -1.68 4 -1 4 C-0.67 2.68 -0.34 1.36 0 0 Z " fill="#0A2232" transform="translate(751,529)"/>
<path d="M0 0 C0.99 0 1.98 0 3 0 C2.67 2.31 2.34 4.62 2 7 C1.01 6.67 0.02 6.34 -1 6 C-0.67 4.02 -0.34 2.04 0 0 Z " fill="#0D2A40" transform="translate(544,524)"/>
<path d="M0 0 C1.98 0.99 1.98 0.99 4 2 C4 2.99 4 3.98 4 5 C2.68 5 1.36 5 0 5 C0 3.35 0 1.7 0 0 Z " fill="#091F2F" transform="translate(581,395)"/>
</svg>
